{"title":"Shoot 'Em Up 2007 BRRiP x246 MP4 280MB - cRcWoRLd","uid":7934707,"size":294854473,"categoryP":"video","categoryS":"movies","magnet":"?xt=urn:btih:e1ee00a6cc9d90367f368b3cef31be9d84d2b21d&amp;dn=Shoot+%27Em+Up+2007+BRRiP+x246+MP4+280MB+-+cRcWoRLd&amp;tr=udp%3A%2F%2Ftracker.openbittorrent.com%3A80&amp;tr=udp%3A%2F%2Fopen.demonii.com%3A1337&amp;tr=udp%3A%2F%2Ftracker.coppersurfer.tk%3A6969&amp;tr=udp%3A%2F%2Fexodus.desync.com%3A6969","seeders":1,"leechers":0,"uploader":"CRCWORLD","files":1,"time":1355819037,"description":"General\nComplete name                            : Shoot 'Em Up 2007 BRRiP x246 MP4 280MB - cRcWoRLd [crcworldmovies].mp4\nFormat                                   : MPEG-4\nFormat profile                           : Base Media / Version 2\nCodec ID                                 : mp42\nFile size                                : 281 MiB\nDuration                                 : 1h 26mn\nOverall bit rate mode                    : Variable\nOverall bit rate                         : 454 Kbps\n\nVideo\nID                                       : 1\nFormat                                   : AVC\nFormat/Info                              : Advanced Video Codec\nFormat profile                           : &lt;a class=&quot;__cf_email__&quot; href=&quot;/cdn-cgi/l/email-protection&quot; data-cfemail=&quot;561e3f313e161a647867&quot;&gt;[email&amp;#160;protected]&lt;/a&gt;&lt;script cf-hash='f9e31' type=&quot;text/javascript&quot;&gt;\n/* &lt;![CDATA[ */!function(){try{var t=&quot;currentScript&quot;in document?document.currentScript:function(){for(var t=document.getElementsByTagName(&quot;script&quot;),e=t.length;e--;)if(t[e].getAttribute(&quot;cf-hash&quot;))return t[e]}();if(t&amp;&amp;t.previousSibling){var e,r,n,i,c=t.previousSibling,a=c.getAttribute(&quot;data-cfemail&quot;);if(a){for(e=&quot;&quot;,r=parseInt(a.substr(0,2),16),n=2;a.length-n;n+=2)i=parseInt(a.substr(n,2),16)^r,e+=String.fromCharCode(i);e=document.createTextNode(e),c.parentNode.replaceChild(e,c)}}}catch(u){}}();/* ]]&gt; */&lt;/script&gt;\nFormat settings, CABAC                   : No\nFormat settings, ReFrames                : 4 frames\nCodec ID                                 : avc1\nCodec ID/Info                            : Advanced Video Coding\nDuration                                 : 1h 26mn\nBit rate mode                            : Variable\nBit rate                                 : 390 Kbps\nWidth                                    : 640 pixels\nHeight                                   : 272 pixels\nDisplay aspect ratio                     : 2.40:1\nOriginal display aspect ratio            : 2.40:1\nFrame rate mode                          : Variable\nFrame rate                               : 23.976 fps\nMinimum frame rate                       : 23.974 fps\nMaximum frame rate                       : 23.981 fps\nColor space                              : YUV\nChroma subsampling                       : 4:2:0\nBit depth                                : 8 bits\nScan type                                : Progressive\nBits/(Pixel*Frame)                       : 0.093\nStream size                              : 239 MiB (85%)\nWriting library                          : x264 core 120\n\nAudio\nID                                       : 2\nFormat                                   : AAC\nFormat/Info                              : Advanced Audio Codec\nFormat profile                           : LC\nCodec ID                                 : 40\nDuration                                 : 1h 26mn\nBit rate mode                            : Variable\nBit rate                                 : 64.0 Kbps\nMaximum bit rate                         : 80.4 Kbps\nChannel(s)                               : 2 channels\nChannel positions                        : Front: L R\nSampling rate                            : 44.1 KHz\nCompression mode                         : Lossy\nStream size                              : 39.6 MiB (14%)\n\n &lt;a href=&quot;\nhttp://img685.imageshack.us/img685/827/vlcsnap2012121600h31m39.png&quot; rel=&quot;nofollow&quot; target=&quot;_NEW&quot;&gt;\nhttp://img685.imageshack.us/img685/827/vlcsnap2012121600h31m39.png&lt;/a&gt; &lt;a href=&quot;\nhttp://img826.imageshack.us/img826/411/vlcsnap2012121600h42m14.png&quot; rel=&quot;nofollow&quot; target=&quot;_NEW&quot;&gt;\nhttp://img826.imageshack.us/img826/411/vlcsnap2012121600h42m14.png&lt;/a&gt; &lt;a href=&quot;\nhttp://img811.imageshack.us/img811/254/emup.jpg&quot; rel=&quot;nofollow&quot; target=&quot;_NEW&quot;&gt;\nhttp://img811.imageshack.us/img811/254/emup.jpg&lt;/a&gt;\n\nSample: datafilehost . com/download-573daf5a.html\nSubtitles: subscene . com/subtitles/shoot-em-up/english/621082","torrent":{"xt":"urn:btih:e1ee00a6cc9d90367f368b3cef31be9d84d2b21d","amp;dn":"Shoot+%27Em+Up+2007+BRRiP+x246+MP4+280MB+-+cRcWoRLd","amp;tr":["udp%3A%2F%2Ftracker.openbittorrent.com%3A80","udp%3A%2F%2Fopen.demonii.com%3A1337","udp%3A%2F%2Ftracker.coppersurfer.tk%3A6969","udp%3A%2F%2Fexodus.desync.com%3A6969"],"infoHash":"e1ee00a6cc9d90367f368b3cef31be9d84d2b21d","infoHashBuffer":{"type":"Buffer","data":[225,238,0,166,204,157,144,54,127,54,139,60,239,49,190,157,132,210,178,29]},"announce":[],"urlList":[]}}